<svg xmlns="http://www.w3.org/2000/svg" width="36" height="36">
  <style>
    .favicon { fill: #211F24; }

    @media (prefers-color-scheme: dark) {
      .favicon { fill: #98FCF6; }
    }
  </style>
  <path class="favicon" d="M23.46 23.31l-4.57-15.3 4.1 3.7 3.06 6.28-2.6 5.32zM18 34.52l-3.94-8.08 3.64 3.28.11.08h.02l.05.02.12.02c.05 0 .1-.01.14-.03h.02l.01-.01h.01a.43.43 0 00.11-.08l3.64-3.28L18 34.52zm0-33.06l3.93 8.08-3.63-3.28-.04-.03a.34.34 0 00-.04-.03l-.04-.02h-.02l-.04-.02h-.04l-.04-.01h-.07-.02-.02-.02l-.04.02-.05.01-.03.01-.02.02h-.01l-.03.02-.03.03-3.64 3.28L18 1.46zm-.45 20.85v6.06L13 24.27l-2.6-5.33 7.14 3.37zM13 11.7l3.22-2.91 1.32-1.2v13.71l-.89-.42-6.6-3.11L13 11.7zm5.44 10.02V9.68l4.19 14.03-4.2-1.98zm0 1l4.1 1.94-4.1 3.7v-5.64zm8.5-4.94l-3.19-6.56-5.36-11c-.15-.3-.66-.3-.8 0l-5.37 11-3.19 6.56v.01a.42.42 0 00-.04.15v.04c0 .04 0 .08.02.12v.03l.01.02.01.03 3.2 6.55 5.35 11a.45.45 0 00.81 0l5.36-11 3.2-6.55a.46.46 0 000-.4z"/>
</svg>
