<svg viewBox="0 0 89 40">
  <path fill="#FFF" d="M32.4 27v-5.98c0-1.44.7-2.18 1.84-2.18 1.14 0 1.78.74 1.78 2.18V27h3.04v-5.98c0-1.44.7-2.18 1.84-2.18 1.14 0 1.78.74 1.78 2.18V27h3.04v-6.98c0-2.58-1.36-3.94-3.62-3.94-1.46 0-2.58.6-3.52 1.7-.56-1.08-1.62-1.7-3.02-1.7-1.54 0-2.46.82-3.16 1.72v-1.52h-3.04V27h3.04zm26.94 0v-2.74h-7.6v-2.94h6.6v-2.74h-6.6v-2.84h7.5V13H48.68v14h10.66zm9.08 0V15.84h4.26V13h-11.6v2.84h4.26V27h3.08zm9.7 0v-5.62h5.68V27h3.08V13H83.8v5.54h-5.68V13h-3.08v14h3.08z"/>
  <path fill="#98FCF6" d="M16.06 25.9L11 8.9 15.54 13l3.4 6.98-2.88 5.91zM10 38.36l-4.38-8.98 4.04 3.64a.5.5 0 00.13.09h.02l.01.01h.04a.49.49 0 00.14.03.49.49 0 00.15-.03h.04l.01-.01a.48.48 0 00.13-.08l4.04-3.65L10 38.36zm0-36.74l4.37 8.98-4.04-3.65-.04-.03a.37.37 0 00-.05-.03l-.04-.02h-.02l-.04-.02-.05-.01-.04-.01h-.13-.02l-.05.02-.04.02a.38.38 0 00-.04.01.13.13 0 00-.03.02h-.01l-.03.03-.04.02-4.04 3.65L10 1.62zM9.5 24.8v6.73l-5.05-4.55-2.88-5.92 7.93 3.74zM4.45 13l3.58-3.24L9.5 8.45v15.23l-.99-.47-7.34-3.46 3.28-6.74zm6.05 11.14v-13.4l4.65 15.6-4.65-2.2zm0 1.1l4.56 2.15-4.56 4.12v-6.26zm9.45-5.48l-3.55-7.29L10.45.26c-.17-.35-.73-.35-.9 0L3.59 12.48.05 19.76v.02a.47.47 0 00-.05.16v.05a.49.49 0 00.02.13v.04l.01.02.01.03 3.55 7.28 5.96 12.23a.5.5 0 00.9 0l5.95-12.23 3.55-7.28a.5.5 0 000-.44z"/>
</svg>
