<svg viewBox="0 0 15 16">
  <path d="M6.66 2.3c.33.33.67.7.95 1.1.96 1.25 1.35 1.58 2.17 1.84a6.9 6.9 0 001.78.26c.93.05 1.3.13 1.63.33.18.13.36.29.46.5l.08.12-.03-.13a3.89 3.89 0 00-.95-1.86l-.1-.1-.06.2c-.1.52-.36.89-.59.89-.1 0-.2-.08-.26-.16-.05-.13-.05-.16.03-.31.15-.34.18-.7.1-1.06a.5.5 0 00-.08-.26c-.23-.15-.46-.28-.7-.4a5.62 5.62 0 00-3.12-.42l-.25.03-.18-.21a4.08 4.08 0 00-2.02-1.34 4.9 4.9 0 00-.87-.03c-.1.03-.08.03.13.05.7.1 1.36.44 1.88.96zm4.85.62c.6.33.7.54.7 1.39.02.2 0 .39-.05.6-.08.15-.06.2.02.05.16-.31.23-.65.2-.98 0-.29 0-.34.06-.37.05-.02.05-.05.13 0 .28.18.54.39.77.62l.16.16-.16-.2c-.1-.14-.33-.4-.57-.63-.46-.46-.49-.54-.56-.98a1.7 1.7 0 010-.88c.02-.05.02-.1.05-.15l-.08.15c-.1.26-.18.54-.18.83-.03.23-.03.3-.05.33-.03.03-.1 0-.44-.13-.26-.1-.54-.18-.83-.23l.26.13.57.29zM6.35 4.8c.23.03.3-.05.2-.2a4.72 4.72 0 01-.38-.7L6 3.3c-.18-.8-.33-1.1-.72-1.34-.2-.1-.41-.18-.65-.23l-.1-.03-.02.21c-.03.75.18 1.47.62 2.09.33.44.82.77 1.2.8zm8.33 3.82c-.18-1.08-.9-1.86-2.09-2.25a7.36 7.36 0 00-1.5-.3c-1.2-.19-1.64-.32-2.03-.63l-.16-.12v.3c0 1.14.67 1.81 2.61 2.59 1.29.51 1.8.77 2.2 1.1.33.26.54.68.56 1.09 0 .08.03.13.03.13.13-.2.23-.47.3-.7.11-.39.14-.8.08-1.21zm-5.8 1.83c-.1.05-.5.13-.88.18-.49.05-1 .18-1.47.39-.18.08-.36.18-.52.3.06 0 .08 0 .13-.02a5.96 5.96 0 011.65-.25c.29 0 .62-.06.75-.06a2.32 2.32 0 001.47-.64 1.53 1.53 0 00.5-1.16 1 1 0 00-.08-.54c-.08-.21-.18-.4-.31-.57l-.08-.1.05.15c.03.13.08.26.08.39.13.93-.34 1.65-1.3 1.93zm4.7-.26a4.5 4.5 0 00-1.55-1.13 5.04 5.04 0 01-.98-.57l-.13-.08c-.03 0-.05.06-.05.1-.13.52-.08 1.09.18 1.58.23.44.48.85.77 1.26.3.44.57.9.77 1.4a1.9 1.9 0 01-.07 1.5c-.05.07-.08.13-.08.2a2.88 2.88 0 001.63-1.96c.07-.39.1-.75.07-1.13-.1-.44-.28-.83-.57-1.17zm-3.93 5.19c-.23-.2-.39-.47-.44-.78l-.1-.59a2.66 2.66 0 00-.44-1.31 2.18 2.18 0 00-1.24-.78c-.41-.08-.85-.1-1.26-.05a5.3 5.3 0 00-2.43 1.16l-.2.18.18.03c.98.15 1.23.28 1.93.98.39.38.52.49.85.57a.92.92 0 001.11-.52.93.93 0 00-.02-.65c-.2-.33-.62-.46-.96-.25l-.08.05a.37.37 0 00-.07.49c.05.08.13.1.2.13.05 0 .05 0-.02-.03-.1-.02-.18-.13-.18-.26a.43.43 0 01.46-.38c.05 0 .13.02.18.05.2.05.34.26.31.46 0 .34-.26.6-.6.6h-.07a1 1 0 01-.57-.29.73.73 0 01.08-1.03c.05-.05.1-.08.18-.1.36-.16.8-.13 1.14.1.38.26.56.49.9 1.29l.3.65c.24.43.7.7 1.2.72.23 0 .49-.05.7-.18.15-.08.3-.16.4-.29-.05 0-.1.03-.17.06-.44.2-.96.18-1.27-.03zm-5.7-3.64a.6.6 0 00-.08-.41 1.85 1.85 0 00-.67-.67c-.52-.36-.75-.65-.8-1.04-.05-.33 0-.56.31-1.16.26-.46.41-.98.41-1.52.03-.41.08-.57.2-.7a.74.74 0 01.55-.23 1.9 1.9 0 001.08-.44c.21-.18.34-.44.34-.7v-.23l-.13-.12C4.7 4 .28.2.26.2.23.2.4.39.59.62c2.27 2.74 3.85 3.87 4 4.1.16.21.08.4-.15.52-.18.08-.36.13-.57.15a.48.48 0 01-.2-.05c-.1-.07-.16-.07-.62-.9L1.82 2.58 3 4.67c.1.2.13.44.03.67 0 .13-.03.2-.2.36-.27.29-.4.62-.47 1.3-.1.77-.36 1.3-1.11 2.21-.23.26-.44.54-.62.85a2.38 2.38 0 00-.08 1.73c.1.34.26.65.47.93.15.2.28.47.36.72 0 .08.02.08.36 0a3.68 3.68 0 001.9-.92.98.98 0 00.32-.78zm-2.32-.52c-.06.16-.24.21-.37.16-.02 0-.02-.03-.05-.03-.08-.05-.1-.15-.02-.25.07-.1.07-.16-.03-.21-.05-.03-.08-.05-.08-.1 0-.13.26-.18.42-.08.18.1.23.33.13.51zm5-4.33a.73.73 0 00-.44-.7.92.92 0 00-.59-.05.9.9 0 00-.54.57.7.7 0 00.05.52c.1.12.2.18.46.18.55 0 1.01-.24 1.06-.52zm-.44-.26c-.1.1-.23.16-.36.16-.18 0-.39-.13-.39-.26 0-.26.4-.39.68-.23.13.07.18.2.07.33z"/>
</svg>
