<svg viewBox="0 0 94 64">
  <path d="M43.8 9.9c1.3 1.3 2.6 2.7 3.7 4.3 3.7 4.8 5.2 6.1 8.4 7.1 2.2.6 4.6 1 6.9 1 3.6.2 5 .5 6.3 1.3.7.5 1.4 1.1 1.8 1.9l.3.5-.1-.5c-.6-2.7-1.8-5.2-3.7-7.2l-.4-.4-.2.8c-.4 2-1.4 3.4-2.3 3.4-.4 0-.8-.3-1-.6-.2-.5-.2-.6.1-1.2.6-1.3.7-2.7.4-4.1 0-.3-.1-.7-.3-1-.9-.6-1.8-1.1-2.7-1.6-3.8-1.7-8-2.2-12.1-1.6l-1 .1-.7-.8c-2.6-2.9-5.1-4.5-7.8-5.2-1-.1-2.2-.2-3.4-.1-.4.1-.3.1.5.2 2.7.4 5.3 1.7 7.3 3.7zm18.8 2.4c2.3 1.3 2.7 2.1 2.7 5.4a6 6 0 01-.2 2.3c-.3.6-.2.8.1.2.6-1.2.9-2.5.8-3.8 0-1.1 0-1.3.2-1.4s.2-.2.5 0c1.1.7 2.1 1.5 3 2.4l.6.6-.6-.8c-.4-.5-1.3-1.5-2.2-2.4-1.8-1.8-1.9-2.1-2.2-3.8-.3-1.2-.3-2.3 0-3.4.1-.2.1-.4.2-.6l-.3.6c-.4 1-.7 2.1-.7 3.2-.1.9-.1 1.2-.2 1.3s-.4 0-1.7-.5c-1-.4-2.1-.7-3.2-.9.3.2.7.4 1 .5l2.2 1.1zm-20 7.3c.9.1 1.2-.2.8-.8-.6-.9-1.1-1.8-1.5-2.7-.1-.3-.4-1.4-.6-2.3-.7-3.1-1.3-4.3-2.8-5.2-.8-.4-1.6-.7-2.5-.9l-.4-.1-.1.8c-.1 2.9.7 5.7 2.4 8.1 1.3 1.7 3.2 3 4.7 3.1zm32.3 14.8c-.7-4.2-3.5-7.2-8.1-8.7-1.9-.6-3.8-1-5.8-1.2-4.7-.7-6.4-1.2-7.9-2.4-.2-.2-.4-.3-.6-.5v1.2c0 4.4 2.6 7 10.1 10 5 2 7 3 8.5 4.3 1.3 1 2.1 2.6 2.2 4.2 0 .3.1.5.1.5.5-.8.9-1.8 1.2-2.7.4-1.5.5-3.1.3-4.7zm-22.5 7.1c-.4.2-1.9.5-3.4.7-1.9.2-3.9.7-5.7 1.5-.7.3-1.4.7-2 1.2.2 0 .3 0 .5-.1 2.1-.6 4.2-1 6.4-1 1.1 0 2.4-.2 2.9-.2 2.1-.1 4.1-1 5.7-2.5a5.98 5.98 0 001.9-4.5c.1-.7 0-1.4-.3-2.1-.3-.8-.7-1.5-1.2-2.2l-.3-.4.2.6c.1.5.3 1 .3 1.5.5 3.6-1.3 6.4-5 7.5zm18.2-1c-1.2-1.5-2.9-2.8-6-4.4-2.5-1.3-3.4-1.8-3.8-2.2-.2-.1-.3-.2-.5-.3-.1 0-.2.2-.2.4-.5 2-.3 4.2.7 6.1.9 1.7 1.9 3.3 3 4.9 1.2 1.7 2.2 3.5 3 5.4.7 1.9.6 4-.3 5.8-.2.3-.3.5-.3.8.3-.1.5-.2.8-.4 2.8-1.5 4.7-4.1 5.5-7.2.3-1.5.4-2.9.3-4.4-.4-1.7-1.1-3.2-2.2-4.5zM55.4 60.6c-.9-.8-1.5-1.8-1.7-3 0-.2-.2-1.3-.4-2.3-.1-1.8-.7-3.6-1.7-5.1a8.44 8.44 0 00-4.8-3c-1.6-.3-3.3-.4-4.9-.2-3.5.7-6.7 2.2-9.4 4.5l-.8.7.7.1c3.8.6 4.8 1.1 7.5 3.8 1.5 1.5 2 1.9 3.3 2.2 1.7.5 3.6-.3 4.3-2 .3-.8.2-1.7-.1-2.5-.8-1.3-2.4-1.8-3.7-1-.1.1-.2.1-.3.2-.6.5-.7 1.3-.3 1.9.2.3.5.4.8.5.2 0 .2 0-.1-.1-.4-.1-.7-.5-.7-1 .1-.9.9-1.6 1.8-1.5.2 0 .5.1.7.2.8.2 1.3 1 1.2 1.8 0 1.3-1 2.3-2.3 2.3h-.3c-.8-.1-1.6-.5-2.2-1.1-1-1.2-.9-3 .3-4 .2-.2.4-.3.7-.4 1.4-.6 3.1-.5 4.4.4 1.5 1 2.2 1.9 3.5 5 .4.8.8 1.7 1.2 2.5.9 1.7 2.7 2.7 4.6 2.8.9 0 1.9-.2 2.7-.7.6-.3 1.2-.6 1.6-1.1-.2 0-.4.1-.7.2-1.7.8-3.7.7-4.9-.1zM33.3 46.5c.1-.5 0-1.1-.3-1.6-.6-1.1-1.6-2-2.6-2.6-2-1.4-2.9-2.5-3.1-4-.2-1.3 0-2.2 1.2-4.5 1-1.8 1.6-3.8 1.6-5.9.1-1.6.3-2.2.8-2.7.6-.6 1.3-.9 2.1-.9 1.5-.1 3-.7 4.2-1.7.8-.7 1.3-1.7 1.3-2.7V19l-.5-.5c-1.8-2-18.9-16.7-19-16.7s.6.7 1.3 1.6c8.8 10.6 14.9 15 15.5 15.9.6.8.3 1.5-.6 2-.7.3-1.4.5-2.2.6-.3 0-.6-.1-.8-.2-.4-.3-.6-.3-2.4-3.5-2.5-3.9-4.7-7.2-4.7-7.2s-.1-.1 4.5 8.1c.4.8.5 1.7.1 2.6 0 .5-.1.8-.8 1.4-1 1.1-1.5 2.4-1.8 5-.4 3-1.4 5.1-4.3 8.6-.9 1-1.7 2.1-2.4 3.3-.5.9-.8 2-.8 3-.1 1.3.1 2.5.5 3.7.4 1.3 1 2.5 1.8 3.6.6.8 1.1 1.8 1.4 2.8 0 .3.1.3 1.4 0 3.3-.7 5.9-2 7.4-3.6.9-.9 1.3-2 1.2-3zm-9-2c-.2.6-.9.8-1.4.6-.1 0-.1-.1-.2-.1-.3-.2-.4-.6-.1-1s.3-.6-.1-.8c-.2-.1-.3-.2-.3-.4 0-.5 1-.7 1.6-.3.7.4.9 1.3.5 2zm19.4-16.8c0-1.2-.6-2.2-1.7-2.7-.7-.3-1.5-.4-2.3-.2-1 .4-1.8 1.2-2.1 2.2-.2.7-.1 1.4.2 2 .4.5.8.7 1.8.7 2.1 0 3.9-.9 4.1-2zm-1.7-1c-.4.4-.9.6-1.4.6-.7 0-1.5-.5-1.5-1 0-1 1.5-1.5 2.6-.9.5.3.7.8.3 1.3z" />
</svg>
